<?xml version="1.0" encoding="utf-8"?>
<!-- Generator: Adobe Illustrator 24.0.1, SVG Export Plug-In . SVG Version: 6.00 Build 0)  -->
<svg version="1.1" id="Layer_1" xmlns="http://www.w3.org/2000/svg" xmlns:xlink="http://www.w3.org/1999/xlink" x="0px" y="0px"
	 viewBox="0 0 1253.59 932.08" style="enable-background:new 0 0 1253.59 932.08;" xml:space="preserve">
<style type="text/css">
	.st0{fill:#FFFFFF;}
	.st1{fill:#F5821F;}
</style>
<rect width="1253.59" height="457.58"/>
<path class="st0" d="M322.25,101.44h264l-20.52,44h-204l-26.81,57.5h119l-20.52,44h-119l-29.84,64h206.5l-22.62,48.5h-266.5
	L322.25,101.44z"/>
<path class="st0" d="M856,359.44h-60l98.86-212h-118.5l21.45-46h297.5l-21.45,46h-119L856,359.44z"/>
<g>
	<polygon class="st1" points="240.96,202.81 220.45,246.81 181.26,246.81 162.92,284.99 119.92,284.99 137.26,246.81 100.07,246.81 
		120.59,202.81 157.78,202.81 175.12,164.62 218.12,164.62 200.78,202.81 	"/>
</g>
<g>
	<path class="st1" d="M838.03,202.81l-20.52,44h-83.53L619.47,359.44h-46.21l-12.52-112.63h-95.6l20.52-44h118.38l-0.02,0.04h0.41
		c2.93,34.3,5.85,68.61,8.77,102.92l106.14-102.96H838.03z"/>
</g>
<polygon class="st1" points="966.36,202.8 1084.74,202.8 1064.22,246.8 945.84,246.8 "/>
<rect y="474.5" class="st0" width="1253.59" height="457.58"/>
<path d="M322.25,575.94h264l-20.52,44h-204l-26.81,57.5h119l-20.52,44h-119l-29.84,64h206.5l-22.62,48.5h-266.5L322.25,575.94z"/>
<path d="M856,833.94h-60l98.86-212h-118.5l21.45-46h297.5l-21.45,46h-119L856,833.94z"/>
<g>
	<polygon class="st1" points="240.96,677.31 220.45,721.31 181.25,721.31 162.9,759.49 119.92,759.49 137.26,721.31 100.07,721.31 
		120.59,677.31 157.78,677.31 175.12,639.12 218.1,639.12 200.76,677.31 	"/>
</g>
<g>
	<path class="st1" d="M838.03,677.31l-20.52,44h-83.53L619.47,833.94h-46.21l-12.52-112.63h-95.6l20.52-44h118.38l-0.02,0.04h0.41
		c2.93,34.3,5.85,68.61,8.77,102.92l106.14-102.96H838.03z"/>
</g>
<polygon class="st1" points="966.36,677.3 1084.74,677.3 1064.22,721.3 945.84,721.3 "/>
</svg>
